# xmcd CD database file generated by OrangeCD 5.1
#
# Track frame offsets:
#	150
#	19578
#	42105
#	60569
#	91701
#	117393
#	142981
#	157757
#	168926
#
# Disc length: 2507 seconds
#
# Revision: 0
# Processed by: cddbd v1.5PL3 Copyright (c) Steve Scherf et al.
# Submitted via: OrangeCD 5.1
#
DISCID=5f09c909
DTITLE=Hancock, Butch - Diamond Hill
DYEAR=1980
DGENRE=Country
TTITLE0=Golden-Hearted Ways
TTITLE1=You Can Take Me For One
TTITLE2=Neon Wind
TTITLE3=Diamond Hill
TTITLE4=Corona Del Mar
TTITLE5=Ghost Of Give And Take Avenue
TTITLE6=Some Folks Call It Style
TTITLE7=Her Lover Of The Hour
TTITLE8=Wheels Of Foutune
EXTD=
EXTT0=
EXTT1=
EXTT2=
EXTT3=
EXTT4=
EXTT5=
EXTT6=
EXTT7=
EXTT8=
PLAYORDER=
